<svg data-v-423bf9ae="" xmlns="http://www.w3.org/2000/svg" viewBox="0 0 532 99" class="iconLeft"><!----><!----><!----><g data-v-423bf9ae="" id="49226d85-d019-454b-9e0f-49ae3e62a618" fill="#022239" transform="matrix(5.665722297967836,0,0,5.665722297967836,118.95831778709902,1.2550830833940552)"><path d="M8.51 8.44L8.51 8.44Q9.35 8.74 9.83 9.36L9.83 9.36L9.83 9.36Q10.30 9.98 10.30 10.86L10.30 10.86L10.30 10.86Q10.30 12.15 9.27 12.85L9.27 12.85L9.27 12.85Q8.23 13.55 6.27 13.55L6.27 13.55L0.98 13.55L0.98 3.75L5.99 3.75L5.99 3.75Q7.87 3.75 8.85 4.45L8.85 4.45L8.85 4.45Q9.83 5.14 9.83 6.31L9.83 6.31L9.83 6.31Q9.83 7.01 9.48 7.57L9.48 7.57L9.48 7.57Q9.14 8.12 8.51 8.44L8.51 8.44ZM5.63 5.75L3.72 5.75L3.72 7.64L5.63 7.64L5.63 7.64Q7.03 7.64 7.03 6.69L7.03 6.69L7.03 6.69Q7.03 5.75 5.63 5.75L5.63 5.75ZM6.05 11.55L6.05 11.55Q7.50 11.55 7.50 10.56L7.50 10.56L7.50 10.56Q7.50 9.56 6.05 9.56L6.05 9.56L3.72 9.56L3.72 11.55L6.05 11.55ZM11.62 13.55L11.62 3.16L14.28 3.16L14.28 13.55L11.62 13.55ZM19.81 13.68L19.81 13.68Q18.59 13.68 17.61 13.17L17.61 13.17L17.61 13.17Q16.63 12.67 16.08 11.77L16.08 11.77L16.08 11.77Q15.53 10.88 15.53 9.74L15.53 9.74L15.53 9.74Q15.53 8.62 16.08 7.73L16.08 7.73L16.08 7.73Q16.63 6.83 17.61 6.33L17.61 6.33L17.61 6.33Q18.58 5.84 19.81 5.84L19.81 5.84L19.81 5.84Q21.04 5.84 22.02 6.33L22.02 6.33L22.02 6.33Q23.00 6.83 23.55 7.72L23.55 7.72L23.55 7.72Q24.09 8.61 24.09 9.74L24.09 9.74L24.09 9.74Q24.09 10.88 23.55 11.77L23.55 11.77L23.55 11.77Q23.00 12.67 22.02 13.17L22.02 13.17L22.02 13.17Q21.04 13.68 19.81 13.68L19.81 13.68ZM19.81 11.56L19.81 11.56Q20.51 11.56 20.96 11.08L20.96 11.08L20.96 11.08Q21.41 10.60 21.41 9.74L21.41 9.74L21.41 9.74Q21.41 8.90 20.96 8.43L20.96 8.43L20.96 8.43Q20.51 7.95 19.81 7.95L19.81 7.95L19.81 7.95Q19.11 7.95 18.66 8.43L18.66 8.43L18.66 8.43Q18.21 8.90 18.21 9.74L18.21 9.74L18.21 9.74Q18.21 10.60 18.66 11.08L18.66 11.08L18.66 11.08Q19.11 11.56 19.81 11.56L19.81 11.56ZM29.20 13.68L29.20 13.68Q27.94 13.68 26.95 13.17L26.95 13.17L26.95 13.17Q25.96 12.67 25.40 11.77L25.40 11.77L25.40 11.77Q24.85 10.88 24.85 9.74L24.85 9.74L24.85 9.74Q24.85 8.61 25.40 7.72L25.40 7.72L25.40 7.72Q25.96 6.83 26.95 6.33L26.95 6.33L26.95 6.33Q27.94 5.84 29.20 5.84L29.20 5.84L29.20 5.84Q30.49 5.84 31.43 6.39L31.43 6.39L31.43 6.39Q32.37 6.94 32.76 7.92L32.76 7.92L30.70 8.97L30.70 8.97Q30.18 7.95 29.19 7.95L29.19 7.95L29.19 7.95Q28.48 7.95 28.01 8.43L28.01 8.43L28.01 8.43Q27.54 8.90 27.54 9.74L27.54 9.74L27.54 9.74Q27.54 10.60 28.01 11.08L28.01 11.08L28.01 11.08Q28.48 11.56 29.19 11.56L29.19 11.56L29.19 11.56Q30.18 11.56 30.70 10.54L30.70 10.54L32.76 11.59L32.76 11.59Q32.37 12.57 31.43 13.13L31.43 13.13L31.43 13.13Q30.49 13.68 29.20 13.68L29.20 13.68ZM39.34 13.55L37.21 10.89L36.43 11.69L36.43 13.55L33.77 13.55L33.77 3.16L36.43 3.16L36.43 8.61L39.14 5.96L42.29 5.96L39.14 9.21L42.56 13.55L39.34 13.55ZM46.94 13.75L46.94 13.75Q45.75 13.75 44.63 13.45L44.63 13.45L44.63 13.45Q43.51 13.16 42.81 12.67L42.81 12.67L43.72 10.63L43.72 10.63Q44.38 11.06 45.25 11.33L45.25 11.33L45.25 11.33Q46.12 11.59 46.96 11.59L46.96 11.59L46.96 11.59Q48.55 11.59 48.55 10.79L48.55 10.79L48.55 10.79Q48.55 10.37 48.10 10.17L48.10 10.17L48.10 10.17Q47.64 9.97 46.63 9.74L46.63 9.74L46.63 9.74Q45.53 9.51 44.79 9.23L44.79 9.23L44.79 9.23Q44.04 8.96 43.51 8.36L43.51 8.36L43.51 8.36Q42.98 7.76 42.98 6.73L42.98 6.73L42.98 6.73Q42.98 5.84 43.47 5.12L43.47 5.12L43.47 5.12Q43.96 4.40 44.93 3.98L44.93 3.98L44.93 3.98Q45.91 3.56 47.32 3.56L47.32 3.56L47.32 3.56Q48.29 3.56 49.22 3.77L49.22 3.77L49.22 3.77Q50.16 3.99 50.88 4.41L50.88 4.41L50.02 6.47L50.02 6.47Q48.62 5.71 47.31 5.71L47.31 5.71L47.31 5.71Q46.48 5.71 46.10 5.96L46.10 5.96L46.10 5.96Q45.72 6.20 45.72 6.59L45.72 6.59L45.72 6.59Q45.72 6.99 46.17 7.18L46.17 7.18L46.17 7.18Q46.62 7.38 47.61 7.59L47.61 7.59L47.61 7.59Q48.73 7.83 49.47 8.10L49.47 8.10L49.47 8.10Q50.20 8.37 50.74 8.97L50.74 8.97L50.74 8.97Q51.28 9.56 51.28 10.58L51.28 10.58L51.28 10.58Q51.28 11.47 50.79 12.18L50.79 12.18L50.79 12.18Q50.30 12.89 49.32 13.32L49.32 13.32L49.32 13.32Q48.34 13.75 46.94 13.75L46.94 13.75ZM60.19 9.77L60.19 9.77Q60.19 9.80 60.14 10.43L60.14 10.43L54.63 10.43L54.63 10.43Q54.80 11.02 55.28 11.33L55.28 11.33L55.28 11.33Q55.76 11.65 56.49 11.65L56.49 11.65L56.49 11.65Q57.04 11.65 57.44 11.49L57.44 11.49L57.44 11.49Q57.83 11.34 58.24 10.99L58.24 10.99L59.64 12.45L59.64 12.45Q58.53 13.68 56.41 13.68L56.41 13.68L56.41 13.68Q55.08 13.68 54.07 13.17L54.07 13.17L54.07 13.17Q53.06 12.67 52.51 11.77L52.51 11.77L52.51 11.77Q51.95 10.88 51.95 9.74L51.95 9.74L51.95 9.74Q51.95 8.62 52.49 7.73L52.49 7.73L52.49 7.73Q53.03 6.85 53.98 6.34L53.98 6.34L53.98 6.34Q54.94 5.84 56.13 5.84L56.13 5.84L56.13 5.84Q57.26 5.84 58.18 6.31L58.18 6.31L58.18 6.31Q59.11 6.78 59.65 7.66L59.65 7.66L59.65 7.66Q60.19 8.55 60.19 9.77L60.19 9.77ZM56.14 7.73L56.14 7.73Q55.52 7.73 55.11 8.08L55.11 8.08L55.11 8.08Q54.70 8.43 54.59 9.03L54.59 9.03L57.69 9.03L57.69 9.03Q57.58 8.43 57.17 8.08L57.17 8.08L57.17 8.08Q56.76 7.73 56.14 7.73L56.14 7.73ZM64.65 5.84L64.65 5.84Q66.54 5.84 67.54 6.70L67.54 6.70L67.54 6.70Q68.53 7.56 68.53 9.34L68.53 9.34L68.53 13.55L66.05 13.55L66.05 12.57L66.05 12.57Q65.48 13.68 63.81 13.68L63.81 13.68L63.81 13.68Q62.93 13.68 62.29 13.37L62.29 13.37L62.29 13.37Q61.64 13.06 61.31 12.54L61.31 12.54L61.31 12.54Q60.98 12.01 60.98 11.34L60.98 11.34L60.98 11.34Q60.98 10.26 61.81 9.67L61.81 9.67L61.81 9.67Q62.64 9.07 64.36 9.07L64.36 9.07L65.87 9.07L65.87 9.07Q65.80 7.87 64.26 7.87L64.26 7.87L64.26 7.87Q63.71 7.87 63.15 8.04L63.15 8.04L63.15 8.04Q62.59 8.22 62.20 8.53L62.20 8.53L61.31 6.72L61.31 6.72Q61.94 6.30 62.84 6.07L62.84 6.07L62.84 6.07Q63.74 5.84 64.65 5.84L64.65 5.84ZM64.55 12.00L64.55 12.00Q65.02 12.00 65.37 11.77L65.37 11.77L65.37 11.77Q65.72 11.55 65.87 11.12L65.87 11.12L65.87 10.46L64.72 10.46L64.72 10.46Q63.56 10.46 63.56 11.23L63.56 11.23L63.56 11.23Q63.56 11.58 63.83 11.79L63.83 11.79L63.83 11.79Q64.09 12.00 64.55 12.00L64.55 12.00ZM70.21 13.55L70.21 3.16L72.87 3.16L72.87 13.55L70.21 13.55Z"></path></g><defs data-v-423bf9ae=""><linearGradient data-v-423bf9ae="" gradientTransform="rotate(25)" id="87e9d8dc-4f99-4657-99e0-3b007462359d" x1="0%" y1="0%" x2="100%" y2="0%"><stop data-v-423bf9ae="" offset="0%" style="stop-color: rgb(0, 10, 104); stop-opacity: 1;"></stop><stop data-v-423bf9ae="" offset="100%" style="stop-color: rgb(0, 196, 238); stop-opacity: 1;"></stop></linearGradient></defs><g data-v-423bf9ae="" id="d7e95c1e-d308-4f95-920f-190cc17a7ac8" transform="matrix(1.0451875474717882,0,0,1.0451875474717882,0.7446292911067616,0.8412640323339389)" stroke="none" fill="url(#87e9d8dc-4f99-4657-99e0-3b007462359d)"><path d="M85.949 17.792V43.7c0 6.346-1.895 12.225-5.22 17.143a13.389 13.389 0 0 1 1.841 3.078 9.775 9.775 0 0 1-1.758 10.576L67.57 88.236a2.312 2.312 0 0 1-.935.741 2.17 2.17 0 0 1-2.878-1.126 2.139 2.139 0 0 1-.109-1.484l2.768-14.012a31.078 31.078 0 0 1-11.23 2.088l-29.754-.027c7.967 5.439 7.967 16.018 7.94 16.21-.055.741-.137 1.291-.357 1.95-.302.852-.852 1.786-2.115 1.401L12.807 79.746C4.51 73.812-2.579 63.976.911 53.865c2.417-6.896 9.286-9.78 15.99-10.961l37.708-7.583L71.031 5.786c2.006-3.489 7.281-6.017 10.797-5.77 3.545.247 6.1 1.208 8.6 3.379l8.133 1.731c.852.055 1.483.77 1.428 1.621l-.906 3.297c-.302.742-.632 1.291-1.318 1.758l-11.816 5.99z"></path></g><!----></svg>