<?xml version="1.0"?>
<svg xmlns="http://www.w3.org/2000/svg" height="512" viewBox="0 0 512 512" width="512"><g><path d="m248.003906 172.625c0 4.140625 3.359375 7.496094 7.5 7.496094s7.5-3.355469 7.5-7.496094v-10c0-4.140625-3.359375-7.5-7.5-7.5s-7.5 3.359375-7.5 7.5zm0 0" data-original="#000000" class="active-path" style="fill:#FFFFFF" data-old_color="#000000"/><path d="m248.003906 207.617188c0 4.140624 3.359375 7.5 7.5 7.5s7.5-3.359376 7.5-7.5v-10c0-4.140626-3.359375-7.496094-7.5-7.496094s-7.5 3.355468-7.5 7.496094zm0 0" data-original="#000000" class="active-path" style="fill:#FFFFFF" data-old_color="#000000"/><path d="m255.503906 145.128906c4.140625 0 7.5-3.355468 7.5-7.5v-9.996094c0-4.144531-3.359375-7.5-7.5-7.5s-7.5 3.355469-7.5 7.5v9.996094c0 4.144532 3.359375 7.5 7.5 7.5zm0 0" data-original="#000000" class="active-path" style="fill:#FFFFFF" data-old_color="#000000"/><path d="m7.5 142.433594c4.140625 0 7.496094-3.359375 7.496094-7.5v-119.9375h119.9375c4.140625 0 7.5-3.355469 7.5-7.496094 0-4.144531-3.359375-7.5-7.5-7.5h-127.433594c-4.140625 0-7.5 3.355469-7.5 7.5v127.433594c0 4.140625 3.355469 7.5 7.5 7.5zm0 0" data-original="#000000" class="active-path" style="fill:#FFFFFF" data-old_color="#000000"/><path d="m134.933594 497.003906h-119.9375v-119.9375c0-4.140625-3.355469-7.5-7.496094-7.5s-7.5 3.359375-7.5 7.5v127.433594c0 4.144531 3.355469 7.5 7.5 7.5h127.433594c4.140625 0 7.5-3.355469 7.5-7.5 0-4.140625-3.359375-7.496094-7.5-7.496094zm0 0" data-original="#000000" class="active-path" style="fill:#FFFFFF" data-old_color="#000000"/><path d="m503.507812 369.566406c-4.140624 0-7.496093 3.359375-7.496093 7.5v119.9375h-119.9375c-4.140625 0-7.5 3.355469-7.5 7.496094 0 4.144531 3.359375 7.5 7.5 7.5h127.433593c4.144532 0 7.5-3.355469 7.5-7.5v-127.433594c0-4.140625-3.355468-7.5-7.5-7.5zm0 0" data-original="#000000" class="active-path" style="fill:#FFFFFF" data-old_color="#000000"/><path d="m503.507812 0h-127.433593c-4.140625 0-7.5 3.355469-7.5 7.5 0 4.140625 3.359375 7.496094 7.5 7.496094h119.9375v119.9375c0 4.140625 3.355469 7.5 7.496093 7.5 4.144532 0 7.5-3.359375 7.5-7.5v-127.433594c0-4.144531-3.355468-7.5-7.5-7.5zm0 0" data-original="#000000" class="active-path" style="fill:#FFFFFF" data-old_color="#000000"/><path d="m131.472656 343.71875c1.148438 0 2.308594-.261719 3.398438-.816406l8.90625-4.539063c3.691406-1.878906 5.160156-6.394531 3.28125-10.085937-1.882813-3.6875-6.398438-5.15625-10.085938-3.277344l-8.910156 4.539062c-3.691406 1.878907-5.15625 6.394532-3.277344 10.085938 1.324219 2.597656 3.957032 4.09375 6.6875 4.09375zm0 0" data-original="#000000" class="active-path" style="fill:#FFFFFF" data-old_color="#000000"/><path d="m193.835938 311.949219c1.144531 0 2.308593-.265625 3.398437-.820313l8.90625-4.539062c3.691406-1.878906 5.15625-6.394532 3.277344-10.085938-1.878907-3.6875-6.394531-5.15625-10.085938-3.273437l-8.910156 4.539062c-3.6875 1.878907-5.15625 6.394531-3.273437 10.085938 1.324218 2.597656 3.957031 4.09375 6.6875 4.09375zm0 0" data-original="#000000" class="active-path" style="fill:#FFFFFF" data-old_color="#000000"/><path d="m162.65625 327.835938c1.144531 0 2.308594-.265626 3.394531-.820313l8.910157-4.539063c3.6875-1.878906 5.15625-6.394531 3.277343-10.085937-1.878906-3.6875-6.394531-5.15625-10.085937-3.277344l-8.90625 4.539063c-3.691406 1.878906-5.160156 6.398437-3.277344 10.085937 1.320312 2.597657 3.953125 4.097657 6.6875 4.097657zm0 0" data-original="#000000" class="active-path" style="fill:#FFFFFF" data-old_color="#000000"/><path d="m225.015625 296.0625c1.144531 0 2.308594-.261719 3.398437-.816406l8.90625-4.542969c3.691407-1.878906 5.160157-6.394531 3.277344-10.085937-1.878906-3.6875-6.394531-5.152344-10.085937-3.273438l-8.90625 4.539062c-3.691407 1.878907-5.160157 6.394532-3.277344 10.085938 1.324219 2.597656 3.957031 4.09375 6.6875 4.09375zm0 0" data-original="#000000" class="active-path" style="fill:#FFFFFF" data-old_color="#000000"/><path d="m374.035156 325c-3.691406-1.878906-8.203125-.414062-10.085937 3.277344-1.878907 3.691406-.410157 8.207031 3.277343 10.085937l8.910157 4.539063c1.089843.554687 2.253906.816406 3.398437.816406 2.726563 0 5.363282-1.496094 6.683594-4.097656 1.882812-3.6875.414062-8.203125-3.277344-10.082032zm0 0" data-original="#000000" class="active-path" style="fill:#FFFFFF" data-old_color="#000000"/><path d="m342.855469 309.113281c-3.691407-1.878906-8.207031-.414062-10.085938 3.277344-1.882812 3.691406-.414062 8.207031 3.277344 10.085937l8.90625 4.539063c1.09375.554687 2.253906.816406 3.398437.816406 2.730469 0 5.363282-1.496093 6.6875-4.09375 1.882813-3.691406.414063-8.207031-3.277343-10.085937zm0 0" data-original="#000000" class="active-path" style="fill:#FFFFFF" data-old_color="#000000"/><path d="m280.496094 277.34375c-3.691406-1.878906-8.207032-.414062-10.085938 3.273438-1.882812 3.691406-.414062 8.207031 3.273438 10.085937l8.910156 4.542969c1.089844.554687 2.253906.816406 3.398438.816406 2.730468 0 5.363281-1.496094 6.6875-4.09375 1.878906-3.691406.414062-8.207031-3.277344-10.089844zm0 0" data-original="#000000" class="active-path" style="fill:#FFFFFF" data-old_color="#000000"/><path d="m311.675781 293.226562c-3.691406-1.878906-8.207031-.410156-10.085937 3.277344-1.882813 3.691406-.414063 8.207032 3.277344 10.085938l8.90625 4.539062c1.089843.554688 2.253906.820313 3.398437.820313 2.730469 0 5.363281-1.496094 6.6875-4.097657 1.882813-3.691406.414063-8.203124-3.277344-10.085937zm0 0" data-original="#000000" class="active-path" style="fill:#FFFFFF" data-old_color="#000000"/><path d="m407.386719 381.578125c5.597656 7.007813 14.207031 11.507813 23.851562 11.507813 16.832031 0 30.527344-13.695313 30.527344-30.527344 0-14.246094-9.808594-26.242188-23.027344-29.59375v-42.089844c0-4.140625-3.359375-7.5-7.5-7.5-4.144531 0-7.5 3.359375-7.5 7.5v42.089844c-.023437.003906-.046875.011718-.066406.019531-.109375.027344-.21875.058594-.328125.089844-.34375.089843-.683594.1875-1.023438.289062-.160156.050781-.316406.101563-.472656.152344-.289062.09375-.578125.191406-.863281.292969-.164063.058594-.328125.121094-.492187.183594-.28125.101562-.554688.214843-.832032.328124-.15625.0625-.3125.128907-.46875.195313-.296875.125-.589844.261719-.878906.394531-.128906.0625-.257812.117188-.382812.179688-.828126.402344-1.636719.84375-2.421876 1.316406-.125.074219-.242187.152344-.363281.226562-.269531.167969-.535156.335938-.800781.511719-.140625.09375-.277344.191407-.414062.285157-.242188.167968-.484376.339843-.722657.515624-.136719.097657-.269531.199219-.40625.300782-.242187.183594-.480469.371094-.714843.5625-.121094.097656-.242188.195312-.363282.296875-.273437.226562-.542968.460937-.808594.699219-.074218.066406-.152343.132812-.226562.199218-.335938.304688-.667969.621094-.992188.945313-.070312.074219-.144531.148437-.214843.222656-.246094.253906-.492188.507813-.730469.765625-.105469.117188-.210938.234375-.3125.351562-.050781.054688-.097656.109376-.148438.164063l-3.074218-1.566406c-3.691406-1.882813-8.203125-.414063-10.085938 3.277343-1.878906 3.6875-.414062 8.203126 3.277344 10.085938l3.058594 1.558594c-.03125.148437-.066406.300781-.097656.453125-.035157.167969-.066407.335937-.097657.503906-.058593.296875-.113281.597656-.164062.898437-.027344.183594-.054688.367188-.082031.546876-.042969.300781-.078126.597656-.113282.898437-.019531.183594-.042968.363281-.058594.542969-.03125.324218-.054687.648437-.074218.976562-.007813.15625-.023438.316406-.027344.472656-.023438.484376-.039062.96875-.039062 1.457032v.003906c0 .492188.015624.984375.039062 1.476562.003906.144532.019531.289063.027344.4375.023437.34375.046875.691407.078125 1.035157.015625.160156.035156.320312.054687.480469.035156.332031.078125.664062.125.992187.023438.152344.046875.304687.070313.457031.027343.15625.046875.316406.074219.472656l-122.707032 62.511719c-3.296875-3.78125-7.464844-6.648437-12.121094-8.410156-.175781-.066406-.355468-.136719-.535156-.203125-.355468-.125-.707031-.246094-1.066406-.359375-.425781-.136719-.855469-.261719-1.289062-.378906-.152344-.039063-.304688-.09375-.457032-.132813v-142.671875c.023438-.007812.046875-.015625.070313-.019531.105469-.027344.210937-.0625.316406-.089844.347656-.09375.691406-.1875 1.035156-.292968.15625-.050782.308594-.101563.460938-.148438.292969-.097656.585937-.195312.875-.296875.164062-.058594.324219-.121094.488281-.179687.28125-.105469.558594-.21875.835938-.332032.15625-.0625.308593-.125.464843-.191406.296875-.128906.59375-.265625.886719-.402344.125-.058594.25-.113281.375-.175781.832031-.402344 1.640625-.84375 2.425781-1.320313.117188-.070312.234375-.144531.351563-.21875.273437-.167968.542968-.339843.8125-.519531.136718-.089843.269531-.183593.40625-.277343.246094-.171876.488281-.34375.730468-.519532.132813-.101562.265626-.199218.398438-.300781.246094-.183594.488281-.375.726562-.566406.117188-.097657.238282-.191407.355469-.289063.277344-.234375.554688-.472656.828125-.71875.066406-.058594.136719-.117187.203125-.179687.339844-.308594.671875-.628907 1-.953125.066407-.066406.128907-.136719.199219-.203125.25-.257813.5-.519531.746094-.785157.101562-.109374.203125-.226562.304687-.339843.203125-.230469.40625-.460938.601563-.695313.105468-.128906.210937-.257812.316406-.386718.1875-.230469.375-.46875.554688-.707032.097656-.128906.199218-.257812.292968-.386718.195313-.257813.378906-.523438.5625-.792969.078125-.109375.15625-.21875.234375-.332031.511719-.761719.988281-1.546876 1.429688-2.355469.066406-.121094.128906-.242188.195312-.363281.148438-.285157.296875-.574219.441407-.863282.074218-.148437.144531-.300781.214843-.453125.125-.269531.25-.542969.371094-.816406.066406-.15625.136719-.316406.203125-.476563.117188-.28125.226562-.566406.335938-.851562.054687-.148438.117187-.300781.171874-.453125.121094-.335937.234376-.679687.34375-1.019531.035157-.101563.070313-.203125.101563-.300782.136719-.449218.265625-.898437.386719-1.355468.027344-.105469.046875-.210938.074218-.316406.085938-.351563.171876-.703126.242188-1.054688.035156-.164062.066406-.328125.097656-.496094.058594-.300781.117188-.601562.164063-.910156.027343-.179688.054687-.359375.082031-.539062.042969-.300782.082031-.601563.113281-.902344.023438-.179688.042969-.359375.058594-.539063.03125-.328125.054687-.652343.078125-.980469.007812-.15625.019531-.3125.027344-.46875.023437-.484374.039062-.972656.039062-1.460937 0-.558594-.019531-1.113281-.046875-1.664063-.007812-.085937-.015625-.171874-.019531-.257812-.03125-.476562-.070312-.957031-.121094-1.429688-.007812-.0625-.019531-.125-.027344-.1875-.054687-.503906-.125-1.003906-.210937-1.5-.007813-.042968-.015625-.089843-.023437-.132812-.085938-.515625-.1875-1.023438-.300782-1.527344-.003906-.019531-.007812-.035156-.011718-.050781l122.996093-62.664063c3.300781 3.78125 7.46875 6.648438 12.121094 8.410157.179687.066406.359375.136719.539063.203125.351562.125.707031.246094 1.0625.359375.425781.136719.859374.261719 1.292968.378906.152344.039063.300782.09375.457032.132813v72.136718c0 4.140625 3.355468 7.496094 7.496093 7.496094 4.144531 0 7.5-3.355469 7.5-7.496094v-72.148437c13.21875-3.351563 23.027344-15.34375 23.027344-29.589844 0-16.835937-13.691406-30.527344-30.527344-30.527344-9.136719 0-17.34375 4.039063-22.941406 10.421875l-123.027344-62.675781c.492188-2.175781.761719-4.429687.761719-6.75 0-16.832031-13.695312-30.527344-30.527344-30.527344-16.832031 0-30.527344 13.695313-30.527344 30.527344 0 2.320313.269532 4.574219.761719 6.75l-24.554687 12.507813c-3.691406 1.878906-5.15625 6.394531-3.277344 10.085937 1.878906 3.6875 6.398438 5.15625 10.085938 3.277344l24.542968-12.503907c4.03125 4.625 9.355469 7.898438 15.289063 9.429688.058593.015625.121093.027344.179687.042969v3.433593c0 4.144532 3.359375 7.5 7.5 7.5s7.5-3.355468 7.5-7.5v-3.433593c.058594-.015625.121094-.027344.179688-.042969 5.933594-1.53125 11.257812-4.804688 15.289062-9.429688l122.996094 62.664063c-.003906.019531-.003906.039063-.011719.058594-.109375.5-.210937 1.003906-.300781 1.515625-.007812.046875-.015625.09375-.023438.140625-.082031.492187-.152343.988281-.210937 1.488281-.007813.066406-.015625.128906-.023437.195312-.050782.476563-.09375.953126-.121094 1.433594-.007813.085938-.015625.167969-.019532.25-.03125.550782-.046874 1.105469-.046874 1.664063 0 .5625.015624 1.117187.046874 1.667969.003907.082031.011719.164062.019532.246093.027344.480469.066406.960938.121094 1.4375.007812.066407.015624.128907.023437.191407.058594.503906.128906 1 .210937 1.496093.007813.046875.015626.089844.023438.132813.089844.515625.191406 1.023437.304688 1.527344.003906.019531.003906.035156.007812.054687l-122.996094 62.660156c-4.035156-4.621093-9.355468-7.894531-15.289062-9.425781-.070313-.019531-.144532-.035156-.214844-.054688-.40625-.101562-.816406-.199218-1.230469-.28125-.140625-.03125-.289062-.054687-.429687-.082031-.355469-.070312-.707032-.136719-1.0625-.191406-.21875-.035156-.441406-.058594-.660156-.089844-.292969-.039062-.585938-.082031-.882813-.113281-.308594-.03125-.621094-.050781-.933594-.074219-.21875-.015625-.433593-.039062-.652343-.050781-.535157-.027344-1.074219-.042969-1.613282-.042969-.542968 0-1.082031.015625-1.617187.042969-.21875.011719-.433594.035156-.652344.050781-.3125.023438-.621094.042969-.933594.074219-.292969.03125-.589843.074219-.882812.113281-.21875.03125-.441407.054688-.65625.089844-.359375.054687-.710938.121094-1.066407.191406-.140624.027344-.289062.050781-.429687.082031-.414063.082032-.824219.179688-1.230469.28125-.070312.019532-.144531.035157-.214844.054688-5.933593 1.53125-11.253906 4.804688-15.289062 9.425781l-122.996094-62.660156c.003906-.019531.007813-.035156.011719-.054687.109375-.503907.210937-1.011719.300781-1.523438.007813-.046875.015625-.089844.023438-.136719.082031-.496093.152344-.992187.210937-1.496093.007813-.0625.019531-.125.023438-.191407.054687-.472656.09375-.949219.121093-1.433593.007813-.082032.015626-.167969.019532-.25.03125-.550782.046875-1.105469.046875-1.664063s-.015625-1.113281-.046875-1.664063c-.003906-.085937-.011719-.167968-.019532-.253906-.027343-.480468-.066406-.957031-.121093-1.433594-.003907-.0625-.015625-.125-.023438-.191406-.058593-.5-.125-1-.210937-1.492187-.007813-.046875-.015625-.09375-.023438-.140625-.089844-.511719-.191406-1.019532-.300781-1.523438-.003906-.015625-.007813-.035156-.011719-.050781l71.761719-36.558594c3.6875-1.882812 5.15625-6.398437 3.277344-10.085937-1.878907-3.691406-6.398438-5.160156-10.085938-3.277344l-71.777343 36.566406c-5.601563-6.378906-13.808594-10.421875-22.945313-10.421875-16.832031 0-30.527344 13.695313-30.527344 30.527344 0 14.246094 9.808594 26.242187 23.027344 29.59375v34.488281c0 4.140625 3.355469 7.496094 7.5 7.496094 4.140625 0 7.5-3.355469 7.5-7.496094v-34.480468c.164063-.039063.324219-.097657.492187-.144532.265626-.070312.53125-.152344.796876-.230468 5.484374-1.640626 10.402343-4.773438 14.179687-9.105469l122.996094 62.660156c-.230469 1.027344-.40625 2.066406-.53125 3.113281-.011719.070313-.023438.140625-.03125.214844-.042969.390625-.070313.78125-.101563 1.171875-.011718.179687-.035156.355469-.042968.535156-.035157.574219-.050782 1.144531-.050782 1.714844 0 14.25 9.808594 26.246094 23.027344 29.597656v142.671875c-.207031.050782-.410156.125-.621094.179688-.3125.089844-.625.179687-.933594.277344-.628906.191406-1.246093.40625-1.859374.640624-.082032.035157-.164063.0625-.246094.09375-4.527344 1.773438-8.582032 4.597657-11.808594 8.292969l-122.703125-62.511719c.027344-.15625.046875-.316406.070313-.472656.027343-.152344.050781-.304687.074218-.457031.046875-.328125.085938-.660156.125-.992187.015625-.160157.035156-.320313.050782-.480469.035156-.34375.058593-.691407.082031-1.035157.007812-.148437.019531-.292968.027343-.4375.023438-.492187.039063-.984374.039063-1.476562v-.003906c0-.535156-.019531-1.066406-.046875-1.59375-.007812-.117188-.015625-.234375-.023438-.347656-.027343-.464844-.070312-.921876-.117187-1.378907-.007813-.058593-.011719-.113281-.019531-.171875-.125-1.105468-.308594-2.191406-.550782-3.253906l3.058594-1.5625c3.691406-1.878906 5.15625-6.394531 3.277344-10.085938-1.878906-3.6875-6.394531-5.15625-10.085938-3.277343l-3.074218 1.570312c-2.449219-2.792969-5.398438-5.132812-8.703125-6.886719-.007813-.003906-.015625-.007812-.023438-.011718-.4375-.230469-.882812-.449219-1.332031-.660156-.058594-.027344-.113281-.054688-.171875-.082032-.449219-.207031-.902344-.402344-1.363281-.589844-.015625-.007812-.03125-.011718-.046875-.019531-.496094-.199219-.996094-.382812-1.503907-.554687-.011718-.003906-.023437-.007813-.035156-.011719-.457031-.15625-.917968-.296875-1.382812-.429687-.117188-.03125-.230469-.0625-.347656-.097657-.179688-.046875-.359376-.101562-.539063-.148437v-79.746094c0-4.140625-3.355469-7.496094-7.5-7.496094-4.140625 0-7.496094 3.355469-7.496094 7.496094v79.75c-13.21875 3.351562-23.027343 15.347656-23.027343 29.59375 0 16.832031 13.691406 30.527344 30.523437 30.527344 9.648437 0 18.253906-4.503906 23.855469-11.507813l122.109375 62.210938c-.492188 2.171875-.757813 4.429687-.757813 6.75 0 16.832031 13.695313 30.527343 30.527344 30.527343 16.835938 0 30.527344-13.695312 30.527344-30.527343 0-2.320313-.269532-4.574219-.761719-6.75zm15.175781-31.894531c2.476562-1.675782 5.464844-2.65625 8.675781-2.65625 8.5625 0 15.53125 6.96875 15.53125 15.53125s-6.96875 15.53125-15.53125 15.53125c-6.394531 0-11.890625-3.886719-14.269531-9.417969-.121094-.277344-.21875-.5625-.320312-.847656-.074219-.203125-.160157-.402344-.226563-.609375-.085937-.285156-.152344-.574219-.222656-.859375-.058594-.21875-.125-.433594-.171875-.65625-.054688-.273438-.085938-.550781-.125-.828125-.039063-.242188-.085938-.480469-.113282-.726563-.046874-.453125-.0625-.914062-.070312-1.375 0-.070312-.011719-.140625-.011719-.210937 0-5.351563 2.722657-10.082032 6.855469-12.875zm-6.753906-192.25c.023437-.207032.0625-.40625.09375-.609375.050781-.355469.109375-.710938.1875-1.0625.050781-.222657.113281-.445313.171875-.667969.089843-.332031.1875-.664062.300781-.988281.070312-.203125.144531-.40625.226562-.609375.136719-.355469.292969-.707032.460938-1.054688 2.507812-5.210937 7.828125-8.832031 13.988281-8.832031 8.5625 0 15.53125 6.96875 15.53125 15.53125s-6.96875 15.53125-15.53125 15.53125c-.476562 0-.949219-.03125-1.417969-.074219-.117187-.007812-.230468-.023437-.347656-.035156-.441406-.050781-.878906-.113281-1.308594-.199219-.019531-.003906-.042968-.007812-.0625-.011719-.480468-.097656-.953124-.222656-1.414062-.367187-.050781-.011719-.09375-.027344-.140625-.042969-3.347656-1.0625-6.207031-3.234375-8.148437-6.078125-.035157-.050781-.066407-.105469-.101563-.15625-.210937-.324219-.410156-.65625-.601563-.992187-.058593-.101563-.117187-.207032-.171874-.308594-.097657-.191406-.183594-.386719-.277344-.578125-.164063-.34375-.316406-.6875-.457032-1.039063-.078124-.203124-.152343-.410156-.226562-.617187-.109375-.324219-.207031-.652344-.296875-.980469-.0625-.222656-.125-.449218-.175781-.675781-.078125-.347656-.132813-.703125-.1875-1.054687-.03125-.207032-.070313-.40625-.09375-.613282-.0625-.5625-.097656-1.132812-.097656-1.707031-.003907-.574219.035156-1.144531.097656-1.707031zm-146.59375-80.554688c-.050782.101563-.105469.199219-.160156.296875-.195313.34375-.398438.683594-.617188 1.011719-.03125.046875-.058594.09375-.089844.140625-1.9375 2.847656-4.800781 5.015625-8.148437 6.082031-.046875.015625-.09375.03125-.140625.042969-.464844.144531-.933594.265625-1.414063.367187-.023437.003907-.042969.007813-.066406.011719-.425781.085938-.867187.148438-1.304687.199219-.117188.011719-.234376.023438-.347657.035156-.46875.042969-.941406.070313-1.421875.070313-.476562 0-.949218-.027344-1.417968-.070313-.117188-.011718-.234376-.023437-.347657-.035156-.441406-.050781-.878906-.113281-1.308593-.199219-.019532-.003906-.042969-.007812-.0625-.011719-.480469-.101562-.953126-.222656-1.414063-.367187-.050781-.011719-.09375-.03125-.144531-.042969-3.347656-1.066406-6.207032-3.238281-8.148438-6.085937-.03125-.042969-.058594-.09375-.089844-.140625-.21875-.328125-.421874-.664063-.613281-1.011719-.054687-.097656-.113281-.191406-.164062-.292969-1.15625-2.171875-1.816407-4.644531-1.816407-7.269531 0-8.5625 6.964844-15.53125 15.527344-15.53125s15.53125 6.96875 15.53125 15.53125c0 2.625-.664062 5.097656-1.820312 7.269531zm-174.015625 83.96875c-.023438.207032-.0625.410156-.09375.613282-.050781.355468-.109375.707031-.1875 1.058593-.050781.226563-.113281.449219-.171875.671875-.089844.328125-.1875.65625-.300782.980469-.070312.207031-.148437.414063-.226562.617187-.136719.351563-.292969.699219-.457031 1.039063-2.027344 4.226563-5.902344 7.402344-10.574219 8.460937-.023438.003907-.042969.011719-.066406.015626-.300782.066406-.609375.121093-.917969.167968-.066406.011719-.128906.023438-.191406.035156-.285157.042969-.574219.066407-.863281.09375-.085938.007813-.171876.019532-.257813.027344-.371094.027344-.746094.042969-1.125.042969-8.5625 0-15.527344-6.96875-15.527344-15.53125s6.964844-15.53125 15.527344-15.53125c6.167969 0 11.492187 3.625 13.996094 8.84375.164062.339844.316406.6875.457031 1.039063.078125.203124.152344.410156.226562.617187.113282.324219.207032.652344.296876.980469.0625.222656.125.445312.175781.671875.078125.351562.132812.707031.1875 1.058593.03125.207032.070312.40625.09375.613282.0625.5625.097656 1.132812.097656 1.707031.003906.574219-.035156 1.144531-.097656 1.707031zm.089843 201.921875c-.003906.460938-.023437.921875-.070312 1.375-.023438.246094-.074219.484375-.109375.726563-.042969.273437-.074219.554687-.128906.828125-.046875.222656-.113281.4375-.167969.65625-.074219.285156-.136719.574219-.226562.859375-.066407.207031-.148438.40625-.222657.609375-.105469.285156-.203125.570312-.320312.847656-2.378907 5.53125-7.878907 9.417969-14.273438 9.417969-8.5625 0-15.527343-6.96875-15.527343-15.53125s6.964843-15.53125 15.527343-15.53125c3.210938 0 6.199219.980468 8.679688 2.65625 4.128906 2.792968 6.851562 7.523437 6.851562 12.875 0 .070312-.011719.140625-.011719.210937zm144.6875-114.097656c0-.570313.035157-1.132813.097657-1.695313.007812-.066406.007812-.136718.015625-.203124.0625-.503907.15625-1.003907.269531-1.496094.023437-.117188.046875-.238282.078125-.355469.113281-.460937.257812-.914063.414062-1.363281.046876-.132813.089844-.269532.140626-.398438.167968-.4375.359374-.867187.566406-1.289062.078125-.160156.152344-.316406.234375-.46875.050781-.101563.109375-.199219.160156-.296875.195313-.34375.398437-.683594.617187-1.011719.03125-.046875.058594-.09375.089844-.140625 1.9375-2.847656 4.800782-5.015625 8.148438-6.082031.046875-.015625.09375-.03125.140625-.046875.460937-.140625.933593-.265625 1.414062-.363281.019531-.003907.042969-.007813.0625-.011719.429688-.085938.867188-.148438 1.308594-.199219.117187-.011719.230469-.027344.347656-.035156.46875-.042969.941407-.074219 1.421875-.074219.476563 0 .949219.03125 1.417969.074219.117187.011718.230469.023437.347656.035156.441407.050781.878907.113281 1.308594.199219.019531.003906.042969.007812.0625.011719.480469.097656.953125.222656 1.414063.363281.046874.015625.09375.03125.140624.046875 3.351563 1.066406 6.210938 3.234375 8.152344 6.082031.027344.046875.058594.09375.089844.140625.21875.328125.421875.667969.613281 1.011719.054688.097656.113281.195312.164063.296875.105468.195312.195312.398437.289062.601562.160156.332032.308594.667969.445313 1.007813.082031.210937.160156.421875.230469.636719.109374.316406.207031.636718.292968.960937.0625.230469.125.457031.179688.6875.074218.347656.132812.695313.183594 1.046875.03125.207031.074218.410156.09375.621094.0625.5625.101562 1.128906.101562 1.707031 0 8.5625-6.96875 15.53125-15.53125 15.53125-8.558594 0-15.523438-6.96875-15.523438-15.53125zm15.527344 217.398437c-8.5625 0-15.527344-6.964843-15.527344-15.527343 0-2.632813.660157-5.105469 1.816407-7.277344.050781-.097656.105469-.1875.15625-.28125.195312-.351563.402343-.699219.628906-1.03125.023437-.042969.050781-.082031.078125-.125 1.941406-2.851563 4.804688-5.023437 8.15625-6.089844.042969-.011719.089844-.027343.132812-.042969.464844-.140624.9375-.265624 1.417969-.363281.019531-.003906.042969-.007812.0625-.011719.429688-.085937.867188-.148437 1.308594-.199218.117187-.015625.230469-.027344.347656-.035156.46875-.042969.941407-.074219 1.421875-.074219.476563 0 .949219.03125 1.417969.074219.117187.007812.230469.019531.347656.035156.441407.050781.882813.113281 1.3125.199218.019531.003907.039063.007813.058594.011719.480469.097657.953125.222657 1.417969.363281.046875.015626.089844.03125.132812.042969 3.355469 1.066407 6.21875 3.238281 8.15625 6.089844.027344.042969.054688.082031.082032.125.222656.335937.429687.679687.628906 1.03125.050781.09375.101562.183594.152344.28125 1.160156 2.171875 1.820312 4.648437 1.820312 7.277344.003906 8.5625-6.964844 15.527343-15.527344 15.527343zm0 0" data-original="#000000" class="active-path" style="fill:#FFFFFF" data-old_color="#000000"/></g> </svg>
