<?xml version="1.0"?>
<svg xmlns="http://www.w3.org/2000/svg" xmlns:xlink="http://www.w3.org/1999/xlink" xmlns:svgjs="http://svgjs.com/svgjs" version="1.1" width="512" height="512" x="0" y="0" viewBox="-48 0 500 500.40043" style="enable-background:new 0 0 512 512" xml:space="preserve" class=""><g><path xmlns="http://www.w3.org/2000/svg" d="m6.722656 406h152.199219c14.011719 55.441406 63.851563 94.316406 121.039063 94.402344 68.765624 0 124.714843-56.0625 124.714843-124.832032 0-68.765624-55.945312-124.769531-124.710937-124.769531-7.613282-.011719-15.214844.675781-22.703125 2.046875-13.808594-48.289062-57.863281-81.644531-108.085938-81.847656h-36.808593c-62.09375.175781-112.3007818 50.636719-112.167969 112.730469v114.808593c0 3.863282 2.660156 7.460938 6.523437 7.460938zm383.953125-30.542969c0 61.144531-49.566406 110.714844-110.710937 110.714844-61.148438 0-110.714844-49.570313-110.714844-110.714844s49.566406-110.714843 110.714844-110.714843c61.117187.070312 110.644531 49.597656 110.710937 110.714843zm-376.476562-91.683593c-.15625-54.382813 43.796875-98.601563 98.179687-98.773438h36.785156c43.746094.191406 82.175782 29.089844 94.5 71.066406-52.503906 16.160156-88.351562 64.648438-88.410156 119.585938.023438 5.464844.367188 10.921875 1.03125 16.347656h-142.085937zm0 0" fill="#ffffff" data-original="#000000" style="" class=""/><path xmlns="http://www.w3.org/2000/svg" d="m130.652344 157h.039062v-6.777344l.070313 7.113282c43.496093-.050782 78.730469-35.324219 78.738281-78.820313-.019531-20.875-8.339844-40.882813-23.132812-55.613281-14.792969-14.730469-34.835938-22.9726565-55.710938-22.902344h-.035156c-43.355469.0078125-78.492188 35.164062-78.484375 78.515625.007812 43.355469 35.164062 78.492187 78.515625 78.484375zm-45.820313-124.089844c12.140625-12.1875 28.65625-18.996094 45.859375-18.910156h.027344c35.625-.007812 64.507812 28.859375 64.519531 64.484375.007813 35.621094-28.863281 64.507813-64.484375 64.515625h-.097656c-26.148438.132812-49.78125-15.542969-59.828125-39.679688-10.046875-24.140624-4.515625-51.957031 14.003906-70.410156zm0 0" fill="#ffffff" data-original="#000000" style="" class=""/><path xmlns="http://www.w3.org/2000/svg" d="m208.800781 448.699219c1.855469.003906 3.636719-.734375 4.949219-2.050781l6.101562-6.097657 17.675782 17.527344c2.726562 2.710937 7.132812 2.710937 9.859375 0l25.222656-25.035156c1.320313-1.308594 2.066406-3.09375 2.070313-4.953125.003906-1.863282-.734376-3.648438-2.050782-4.964844l-17.675781-17.675781 37.316406-37.316407c17.363281 12.222657 41.191407 9.132813 54.859375-7.113281 13.671875-16.25 12.636719-40.253906-2.375-55.269531-15.015625-15.015625-39.023437-16.046875-55.269531-2.378906-16.25 13.671875-19.339844 37.5-7.113281 54.863281l-78.523438 78.519531c-2.003906 2.003906-2.601562 5.011719-1.519531 7.628906 1.085937 2.617188 3.636719 4.320313 6.46875 4.320313zm48.964844-20.648438-15.308594 15.195313-12.699219-12.601563 15.296876-15.300781zm58-120.15625c14.824219.003907 26.84375 12.023438 26.84375 26.847657 0 14.824218-12.019531 26.84375-26.847656 26.84375-14.824219 0-26.84375-12.019532-26.84375-26.84375.019531-14.816407 12.023437-26.820313 26.839843-26.839844zm0 0" fill="#ffffff" data-original="#000000" style="" class=""/></g></svg>
